<?xml version="1.0" encoding="utf-8"?><svg viewBox="0 0 509 481" xmlns="http://www.w3.org/2000/svg" xmlns:xlink="http://www.w3.org/1999/xlink"><style>:root>svg{display:none}:root>svg:target{display:block}</style><svg fill="none" viewBox="0 0 15 13" id="arr-left-black" xmlns="http://www.w3.org/2000/svg"><path d="M15 6.136a.68.68 0 0 0-.587-.673l-.092-.006H2.379l4.314-4.296A.68.68 0 0 0 5.81.132l-.077.066-5.48 5.456a.682.682 0 0 0-.2.456v.053l.003.04-.003-.067a.683.683 0 0 0 .134.405l.006.008a.683.683 0 0 0 .06.068l5.48 5.458a.68.68 0 0 0 1.025-.887l-.066-.076L2.38 6.816h11.94a.68.68 0 0 0 .68-.68z" fill="#000"/></svg><svg fill="#05A42C" viewBox="0 0 15 13" id="arr-left-green" xmlns="http://www.w3.org/2000/svg"><path d="M15 6.136a.68.68 0 0 0-.587-.673l-.092-.006H2.379l4.314-4.296A.68.68 0 0 0 5.81.132l-.077.066-5.48 5.456a.682.682 0 0 0-.2.456v.053l.003.04-.003-.067a.683.683 0 0 0 .134.405l.006.008a.683.683 0 0 0 .06.068l5.48 5.458a.68.68 0 0 0 1.025-.887l-.066-.076L2.38 6.816h11.94a.68.68 0 0 0 .68-.68z"/></svg><svg fill="none" viewBox="0 0 15 13" id="arr-left-white" xmlns="http://www.w3.org/2000/svg"><path d="M15 6.136a.68.68 0 0 0-.587-.673l-.092-.006H2.379l4.314-4.296A.68.68 0 0 0 5.81.132l-.077.066-5.48 5.456a.682.682 0 0 0-.2.456v.053l.003.04-.003-.067a.683.683 0 0 0 .134.405l.006.008a.683.683 0 0 0 .06.068l5.48 5.458a.68.68 0 0 0 1.025-.887l-.066-.076L2.38 6.816h11.94a.68.68 0 0 0 .68-.68z" fill="#fff"/></svg><svg fill="none" viewBox="0 0 15 13" id="arr-right-black" xmlns="http://www.w3.org/2000/svg"><path d="M0 6.136a.68.68 0 0 1 .587-.673l.092-.006h11.942L8.307 1.161A.68.68 0 0 1 9.19.132l.077.066 5.48 5.456a.678.678 0 0 1 .091.113l.022.037a.454.454 0 0 1 .04.084.478.478 0 0 1 .028.09.568.568 0 0 1 .019.158v.027a.667.667 0 0 1-.003.04l.003-.067a.683.683 0 0 1-.134.405l-.006.008a.69.69 0 0 1-.06.068l-5.48 5.458a.68.68 0 0 1-1.025-.887l.066-.076 4.313-4.296H.68a.68.68 0 0 1-.68-.68z" fill="#000"/></svg><svg fill="#05A42C" viewBox="0 0 15 13" id="arr-right-green" xmlns="http://www.w3.org/2000/svg"><path d="M0 6.136a.68.68 0 0 1 .587-.673l.092-.006h11.942L8.307 1.161A.68.68 0 0 1 9.19.132l.077.066 5.48 5.456a.678.678 0 0 1 .091.113l.022.037a.454.454 0 0 1 .04.084.478.478 0 0 1 .028.09.568.568 0 0 1 .019.158v.027a.667.667 0 0 1-.003.04l.003-.067a.683.683 0 0 1-.134.405l-.006.008a.69.69 0 0 1-.06.068l-5.48 5.458a.68.68 0 0 1-1.025-.887l.066-.076 4.313-4.296H.68a.68.68 0 0 1-.68-.68z"/></svg><svg fill="none" viewBox="0 0 15 13" id="arr-right-white" xmlns="http://www.w3.org/2000/svg"><path d="M0 6.136a.68.68 0 0 1 .587-.673l.092-.006h11.942L8.307 1.161A.68.68 0 0 1 9.19.132l.077.066 5.48 5.456a.678.678 0 0 1 .091.113l.022.037a.454.454 0 0 1 .04.084.478.478 0 0 1 .028.09.568.568 0 0 1 .019.158v.027a.667.667 0 0 1-.003.04l.003-.067a.683.683 0 0 1-.134.405l-.006.008a.69.69 0 0 1-.06.068l-5.48 5.458a.68.68 0 0 1-1.025-.887l.066-.076 4.313-4.296H.68a.68.68 0 0 1-.68-.68z" fill="#fff"/></svg><svg fill="none" viewBox="0 0 50 44" id="benefits-car" xmlns="http://www.w3.org/2000/svg"><path d="M33.36 34.84H13.515a2.078 2.078 0 0 1 0-4.155H33.36a2.077 2.077 0 1 1 0 4.155zm11.437 0h-.499a2.077 2.077 0 1 1 0-4.155h.5a1.031 1.031 0 0 0 1.046-1.03v-7.132a1.048 1.048 0 0 0-.798-1.014h-12.25a5.203 5.203 0 0 1-5.203-5.186V5.186a1.015 1.015 0 0 0-1.03-1.03H2.077a2.078 2.078 0 1 1 0-4.156h24.484a5.186 5.186 0 0 1 5.187 5.186V16.29a1.03 1.03 0 0 0 1.047 1.03h12.001c.38.005.758.044 1.13.117l.366.116A5.153 5.153 0 0 1 50 22.54v7.13a5.202 5.202 0 0 1-5.203 5.17z" fill="#05A42C"/><path d="M45.512 21.576a2.062 2.062 0 0 1-1.945-1.38l-3.325-9.242a.998.998 0 0 0-.78-.415h-9.825a2.078 2.078 0 0 1 0-4.156h9.824a5.12 5.12 0 0 1 4.488 2.693c.051.096.096.196.133.299l3.325 9.425a2.094 2.094 0 0 1-1.264 2.66 2.558 2.558 0 0 1-.631.116zm-6.682 22.14a7.564 7.564 0 1 1 0-15.127 7.564 7.564 0 0 1 0 15.128zm0-10.97a3.408 3.408 0 1 0-.167 6.814 3.408 3.408 0 0 0 .167-6.814zM8.028 43.716a7.564 7.564 0 1 1 0-15.126 7.564 7.564 0 0 1 0 15.127zm0-10.97a3.407 3.407 0 1 0 0 6.814 3.407 3.407 0 0 0 0-6.814z" fill="#05A42C"/><path d="M42.72 34.84a2.062 2.062 0 0 1-2.078-2.077V14.595a2.078 2.078 0 0 1 4.155 0v18.168a2.062 2.062 0 0 1-2.078 2.077zM21.425 14.66H7.813a2.078 2.078 0 0 1 0-4.155h13.613a2.078 2.078 0 1 1 0 4.156zm2.56 9.276h-7.114a2.077 2.077 0 1 1 0-4.155h7.114a2.077 2.077 0 1 1 0 4.155z" fill="#05A42C"/></svg><svg fill="none" viewBox="0 0 55 55" id="benefits-medal" xmlns="http://www.w3.org/2000/svg"><path d="m16.953 24.776.34.255a1.58 1.58 0 0 1 .595 1.8l-.136.408a5.012 5.012 0 0 0 7.73 5.556l.34-.238a1.58 1.58 0 0 1 1.902 0l.34.238a5.096 5.096 0 0 0 7.73-5.607l-.136-.407a1.58 1.58 0 0 1 .595-1.801l.34-.255a5.097 5.097 0 0 0-3.024-9.021h-.425a1.698 1.698 0 0 1-1.53-1.121l-.067-.476a5.097 5.097 0 0 0-9.548 0l-.136.408a1.7 1.7 0 0 1-1.529 1.121h-.357a5.096 5.096 0 0 0-2.956 9.072l-.068.068zm1.41-4.553a1.563 1.563 0 0 1 1.614-1.121h.425a5.097 5.097 0 0 0 4.774-3.398l.119-.39a1.7 1.7 0 0 1 3.092 0l.119.39a5.097 5.097 0 0 0 4.774 3.483h.289a1.613 1.613 0 0 1 .95 2.922l-.339.255a4.977 4.977 0 0 0-1.818 5.606l.136.408a1.699 1.699 0 0 1-2.497 1.8l-.34-.237a5.097 5.097 0 0 0-5.912 0l-.34.238a1.699 1.699 0 0 1-2.497-1.801l.136-.408a4.977 4.977 0 0 0-1.818-5.606l-.34-.255a1.562 1.562 0 0 1-.526-1.886z" fill="#05A42C"/><path d="M45.688 22.721a18.687 18.687 0 1 0-32.279 12.793V53.3a1.7 1.7 0 0 0 2.361 1.563L27 50.056l11.23 4.808c.21.09.434.136.662.136.333-.003.658-.103.935-.289a1.7 1.7 0 0 0 .764-1.41V35.514a18.688 18.688 0 0 0 5.097-12.793zM27 7.431a15.29 15.29 0 1 1 0 30.58 15.29 15.29 0 0 1 0-30.58zm.663 39.21a1.698 1.698 0 0 0-1.325 0l-9.531 4.078V38.368a18.687 18.687 0 0 0 20.386 0v12.35l-9.53-4.077z" fill="#05A42C"/></svg><svg fill="none" viewBox="0 0 55 55" id="benefits-tick" xmlns="http://www.w3.org/2000/svg"><path d="M34.038 54a15.884 15.884 0 0 1-4.486-.876 13.63 13.63 0 0 0-3.288-.73 14.94 14.94 0 0 0-3.171.511c-2.163.525-4.633 1.124-6.942.088-2.308-1.037-3.492-3.27-4.515-5.24a13.035 13.035 0 0 0-1.71-2.714 13.152 13.152 0 0 0-2.674-1.985c-1.87-1.153-3.974-2.466-4.836-4.728-.863-2.262-.22-4.655.452-6.742a13.65 13.65 0 0 0 .687-3.313 13.118 13.118 0 0 0-.511-3.167c-.526-2.16-1.125-4.611-.088-6.932a10.532 10.532 0 0 1 5.246-4.495 13.047 13.047 0 0 0 2.718-1.722A13.598 13.598 0 0 0 12.908 9.3c1.154-1.94 2.47-4.042 4.749-4.903 2.28-.861 4.646-.146 6.75.525 1.062.38 2.166.625 3.289.73a14.03 14.03 0 0 0 3.17-.526c2.163-.51 4.633-1.109 6.942-.073a10.526 10.526 0 0 1 4.515 5.196c.456.971 1.03 1.883 1.71 2.714a13.17 13.17 0 0 0 2.732 1.985c1.87 1.153 3.975 2.466 4.837 4.728.862 2.262.146 4.656-.482 6.757a13.585 13.585 0 0 0-.73 3.284 13.12 13.12 0 0 0 .51 3.166c.527 2.16 1.126 4.612.089 6.933-1.038 2.305-3.274 3.487-5.246 4.524a13.593 13.593 0 0 0-2.733 1.707 13.732 13.732 0 0 0-1.973 2.729c-1.154 1.868-2.47 3.97-4.734 4.83a6.26 6.26 0 0 1-2.265.395zm-7.906-5.298h.234c1.445.106 2.87.4 4.238.876a7.812 7.812 0 0 0 4.413.583c1.11-.408 1.987-1.838 2.922-3.342a17.087 17.087 0 0 1 2.587-3.458 16.529 16.529 0 0 1 3.521-2.277 7.713 7.713 0 0 0 3.624-2.802 7.666 7.666 0 0 0-.306-4.568 16.035 16.035 0 0 1-.658-4.1c.106-1.443.4-2.866.877-4.233a7.784 7.784 0 0 0 .584-4.407c-.424-1.109-1.841-1.985-3.346-2.919a17.111 17.111 0 0 1-3.463-2.583 16.502 16.502 0 0 1-2.25-3.517 7.793 7.793 0 0 0-2.806-3.619 7.784 7.784 0 0 0-4.574.292 14.7 14.7 0 0 1-4.136.671 16.824 16.824 0 0 1-4.267-.92 7.74 7.74 0 0 0-4.383-.54c-1.111.424-1.988 1.84-2.923 3.343a17.091 17.091 0 0 1-2.586 3.43 16.53 16.53 0 0 1-3.522 2.276 7.801 7.801 0 0 0-3.624 2.802 7.754 7.754 0 0 0 .292 4.568c.412 1.34.639 2.729.672 4.13a16.763 16.763 0 0 1-.92 4.261 7.71 7.71 0 0 0-.54 4.378c.423 1.11 1.84 1.985 3.345 2.919a17.12 17.12 0 0 1 3.464 2.583 16.507 16.507 0 0 1 2.25 3.517 7.794 7.794 0 0 0 2.806 3.62 7.813 7.813 0 0 0 4.573-.307 16.82 16.82 0 0 1 3.902-.657z" fill="#05A42C"/><path d="M23.397 37.81a2.317 2.317 0 0 1-1.638-.651l-6.775-6.575a2.317 2.317 0 0 1-.705-1.632 2.3 2.3 0 0 1 .668-1.646 2.344 2.344 0 0 1 1.648-.698 2.363 2.363 0 0 1 1.664.66l5.157 4.992 12.289-11.585a2.353 2.353 0 0 1 1.705-.723 2.374 2.374 0 0 1 1.704.725 2.324 2.324 0 0 1 .644 1.72 2.31 2.31 0 0 1-.816 1.65L25.015 37.083a2.313 2.313 0 0 1-1.618.726z" fill="#05A42C"/></svg><svg fill="none" viewBox="0 0 12 21" id="btn-arr-header" xmlns="http://www.w3.org/2000/svg"><path d="M1.258 18.977a.883.883 0 0 1-.085-1.149l.085-.099 7.611-7.611-7.61-7.612a.883.883 0 0 1-.086-1.149l.085-.099a.883.883 0 0 1 1.15-.085l.098.085 8.236 8.236a.883.883 0 0 1 .085 1.149l-.085.099-8.236 8.235a.882.882 0 0 1-1.248 0z" fill="#fff" stroke="#fff" stroke-width="2"/></svg><svg fill="none" viewBox="0 0 61 54" id="car-delivery" xmlns="http://www.w3.org/2000/svg"><path d="M34.313 17.843a7.594 7.594 0 0 1 5.718-2.593v11.438a3.824 3.824 0 0 0 3.813 3.812h15.25v9.531a7.625 7.625 0 0 1-7.625 7.625H5.719a3.824 3.824 0 0 1-3.813-3.812v-5.719a3.824 3.824 0 0 1 3.813-3.813H24.78a7.625 7.625 0 0 0 7.625-7.624v-3.813a7.625 7.625 0 0 1 1.907-5.032z" fill="#C3BEC6"/><path d="M59.094 22.875V30.5h-15.25a3.824 3.824 0 0 1-3.813-3.813V15.25H51.47a7.625 7.625 0 0 1 7.625 7.625z" fill="#BDEFFC"/><path d="M51.469 24.781a7.648 7.648 0 0 1-7.625-7.625V15.25H40.03v11.438a3.824 3.824 0 0 0 3.813 3.812h15.25v-5.719h-7.625z" fill="#9DDCED"/><path d="M34.313 7.625v10.218a7.625 7.625 0 0 0-1.907 5.032v3.813a7.625 7.625 0 0 1-7.625 7.625H11.438a7.625 7.625 0 0 1-7.626-7.454V9.531a7.625 7.625 0 0 1 7.626-7.625h17.156a5.719 5.719 0 0 1 5.718 5.719z" fill="#D1945C"/><path d="M30.5 24.781h-9.531A11.472 11.472 0 0 1 9.53 13.344V2.175a7.604 7.604 0 0 0-5.719 7.356V26.86a7.455 7.455 0 0 0 7.454 7.453H24.78a7.625 7.625 0 0 0 7.625-7.624v-2.175c-.621.17-1.262.26-1.906.268z" fill="#C9874B"/><path d="M24.781 1.906H13.344v9.531H24.78v-9.53z" fill="#BDEFFC"/><path d="M17.156 1.906h-3.812v9.531h3.812v-9.53z" fill="#9DDCED"/><path d="M40.031 51.469a3.813 3.813 0 1 0 0-7.626 3.813 3.813 0 0 0 0 7.626zm-26.687 0a3.813 3.813 0 1 0 0-7.625 3.813 3.813 0 0 0 0 7.625z" fill="#655E66"/><path d="M5.719 34.313h22.875a5.72 5.72 0 0 1-5.719 5.718H1.906v-1.906a3.812 3.812 0 0 1 3.813-3.813z" fill="#AC9FB5"/><path d="M51.469 13.344H40.03a9.542 9.542 0 0 0-9.531 9.531v3.813a5.719 5.719 0 0 1-5.719 5.718H11.438a5.719 5.719 0 0 1-5.72-5.718V9.53a5.719 5.719 0 0 1 5.72-5.718v7.624a1.906 1.906 0 0 0 1.906 1.907H24.78a1.907 1.907 0 0 0 1.907-1.906V3.813a5.686 5.686 0 0 1 5.68 4.956 1.906 1.906 0 0 0 3.813-.02 1.732 1.732 0 0 0 0-.19A9.518 9.518 0 0 0 26.688 0h-15.25a9.543 9.543 0 0 0-9.532 9.531v17.372a9.488 9.488 0 0 0 2.145 5.782A5.705 5.705 0 0 0 0 38.125v5.719a5.719 5.719 0 0 0 5.719 5.718h2.257a5.719 5.719 0 1 0 0-3.812H5.719a1.906 1.906 0 0 1-1.907-1.906v-5.719a1.906 1.906 0 0 1 1.907-1.906H24.78a9.543 9.543 0 0 0 9.532-9.532v-3.812a5.72 5.72 0 0 1 3.812-5.366v9.178a5.719 5.719 0 0 0 5.719 5.72h13.343v7.624a5.719 5.719 0 0 1-5.718 5.719 1.906 1.906 0 0 0 0 3.813A9.542 9.542 0 0 0 61 40.03V22.875a9.542 9.542 0 0 0-9.531-9.531zM22.875 9.53H15.25V3.813h7.625V9.53zm-9.531 36.22a1.906 1.906 0 1 1 0 3.812 1.906 1.906 0 0 1 0-3.812zm30.5-17.156a1.907 1.907 0 0 1-1.907-1.907v-9.53h9.532a5.719 5.719 0 0 1 5.718 5.718v5.719H43.844z" fill="#000"/><path d="M45.75 47.656a5.719 5.719 0 1 0-11.437 0 5.719 5.719 0 0 0 11.437 0zm-7.625 0a1.906 1.906 0 1 1 3.812 0 1.906 1.906 0 0 1-3.812 0zm-13.344 1.907h3.813a1.906 1.906 0 0 0 0-3.813H24.78a1.906 1.906 0 0 0 0 3.813z" fill="#000"/></svg><svg fill="none" viewBox="0 0 117 90" id="comms" xmlns="http://www.w3.org/2000/svg"><path d="M72.053 90c-.263-.878-.328-1.197-.394-1.436-.394-3.032-1.706-6.543-.853-8.857.788-2.074 4.004-2.952 6.17-4.228 6.039-3.59 9.977-9.256 11.618-17.474-5.645-.798-10.699-2.952-14.9-7.58-9.255-10.372-10.305-27.925-2.363-39.654 8.27-12.207 23.63-14.441 34.264-4.627 9.649 8.936 12.537 21.462 11.028 35.425-2.626 24.495-17.526 42.606-38.4 47.314-1.969.479-4.004.718-6.17 1.117zm-65.89 0c-.262-.949-.393-1.344-.458-1.74C4 79.487 4 79.487 10.62 75.77c6.226-3.478 10.223-9.17 11.927-17.391-1.77-.474-3.408-.712-4.98-1.265C6.426 53.636-1.111 40.434.134 26.68 1.38 12.845 10.816 1.856 22.284 1.066c17.499-1.265 30.212 15.81 28.574 38.498-1.835 25.297-16.908 44.507-38.73 49.408-1.967.396-3.867.633-5.965 1.028z" fill="#83B08E"/></svg><svg fill="none" viewBox="0 0 117 90" id="coms" xmlns="http://www.w3.org/2000/svg"><path d="M72.053 90c-.263-.878-.328-1.197-.394-1.436-.394-3.032-1.706-6.543-.853-8.857.788-2.074 4.004-2.952 6.17-4.228 6.039-3.59 9.977-9.256 11.618-17.474-5.645-.798-10.699-2.952-14.9-7.58-9.255-10.372-10.305-27.925-2.363-39.654 8.27-12.207 23.63-14.441 34.264-4.627 9.649 8.936 12.537 21.462 11.028 35.425-2.626 24.495-17.526 42.606-38.4 47.314-1.969.479-4.004.718-6.17 1.117zm-65.89 0c-.262-.949-.393-1.344-.458-1.74C4 79.487 4 79.487 10.62 75.77c6.226-3.478 10.223-9.17 11.927-17.391-1.77-.474-3.408-.712-4.98-1.265C6.426 53.636-1.111 40.434.134 26.68 1.38 12.845 10.816 1.856 22.284 1.066c17.499-1.265 30.212 15.81 28.574 38.498-1.835 25.297-16.908 44.507-38.73 49.408-1.967.396-3.867.633-5.965 1.028z" fill="#83B08E"/></svg><svg fill="none" viewBox="0 0 22 22" id="empty-star-gray" xmlns="http://www.w3.org/2000/svg"><path d="M10.572 1.342c.338-.91 1.643-.853 1.9.082l1.578 5.72a1 1 0 0 0 .92.734l5.912.254c.966.041 1.316 1.294.51 1.83l-4.944 3.296a1 1 0 0 0-.41 1.098l1.582 5.737c.257.935-.832 1.653-1.589 1.048l-4.618-3.69a1 1 0 0 0-1.18-.051l-4.921 3.28c-.807.538-1.83-.271-1.492-1.18l2.075-5.58a1 1 0 0 0-.313-1.129L.942 9.083c-.755-.603-.298-1.821.669-1.78l5.91.254a1 1 0 0 0 .982-.65l2.069-5.565z" fill="#E5E5E5"/></svg><svg fill="none" viewBox="0 0 13 12" id="green-star-full" xmlns="http://www.w3.org/2000/svg"><path d="M10.51 7.205a.67.67 0 0 0-.194.591l.542 3a.659.659 0 0 1-.274.658.671.671 0 0 1-.713.048l-2.7-1.408a.69.69 0 0 0-.305-.08h-.165a.493.493 0 0 0-.164.055l-2.7 1.415a.712.712 0 0 1-.434.067.678.678 0 0 1-.542-.775l.542-2.999a.682.682 0 0 0-.194-.596L1.008 5.047a.658.658 0 0 1-.164-.689.684.684 0 0 1 .542-.457l3.03-.44a.678.678 0 0 0 .536-.37L6.287.353a.634.634 0 0 1 .122-.165l.054-.043a.41.41 0 0 1 .099-.079l.066-.024L6.732 0h.256a.68.68 0 0 1 .537.366L8.877 3.09c.098.2.287.338.506.372l3.03.44c.256.036.47.212.554.456a.662.662 0 0 1-.176.69l-2.28 2.157z" fill="#05A42C"/></svg><svg fill="none" viewBox="0 0 13 12" id="green-star-gull" xmlns="http://www.w3.org/2000/svg"><path d="M10.51 7.205a.67.67 0 0 0-.194.591l.542 3a.659.659 0 0 1-.274.658.671.671 0 0 1-.713.048l-2.7-1.408a.69.69 0 0 0-.305-.08h-.165a.493.493 0 0 0-.164.055l-2.7 1.415a.712.712 0 0 1-.434.067.678.678 0 0 1-.542-.775l.542-2.999a.682.682 0 0 0-.194-.596L1.008 5.047a.658.658 0 0 1-.164-.689.684.684 0 0 1 .542-.457l3.03-.44a.678.678 0 0 0 .536-.37L6.287.353a.634.634 0 0 1 .122-.165l.054-.043a.41.41 0 0 1 .099-.079l.066-.024L6.732 0h.256a.68.68 0 0 1 .537.366L8.877 3.09c.098.2.287.338.506.372l3.03.44c.256.036.47.212.554.456a.662.662 0 0 1-.176.69l-2.28 2.157z" fill="#05A42C"/></svg><svg fill="none" viewBox="0 0 509 481" id="main-bg" xmlns="http://www.w3.org/2000/svg"><path d="M88.536 478.453c54.795-54.795 104.244-5.346 159.04-60.142 54.795-54.795 5.346-104.244 59.918-158.816 54.796-54.796 104.245-5.347 158.816-59.919 54.796-54.795 5.347-104.244 60.143-159.04M45.268 435.185c54.795-54.795 104.244-5.346 159.04-60.142 54.795-54.795 5.347-104.244 59.918-158.816 54.796-54.796 104.245-5.347 158.817-59.919 54.795-54.795 5.346-104.244 60.142-159.04M2.001 391.917c54.796-54.796 104.244-5.347 159.04-60.142 54.795-54.796 5.347-104.245 59.918-158.817 54.796-54.795 104.245-5.346 158.817-59.918C434.571 58.244 385.122 8.796 439.918-46" stroke="url(#qa)" stroke-width="4" stroke-miterlimit="10" stroke-linecap="round" stroke-linejoin="round"/><defs><linearGradient id="qa" x1="489.5" y1="2" x2="107" y2="409" gradientUnits="userSpaceOnUse"><stop stop-color="#05A42C" stop-opacity=".75"/><stop offset="1" stop-color="#05A42C" stop-opacity="0"/></linearGradient></defs></svg><svg fill="none" viewBox="0 0 24 24" id="shop" xmlns="http://www.w3.org/2000/svg"><path d="M14.397 19.216a1.194 1.194 0 0 0 1.204-1.196v-2.393c0-.317-.127-.621-.352-.845a1.209 1.209 0 0 0-1.704 0 1.192 1.192 0 0 0-.352.845v2.393c0 .317.127.621.352.845.226.225.533.35.852.35zm-4.817 0c.32 0 .625-.126.851-.35.226-.225.353-.53.353-.846v-2.393a1.19 1.19 0 0 0-.353-.845 1.209 1.209 0 0 0-1.703 0 1.192 1.192 0 0 0-.353.845v2.393c0 .317.127.621.353.845.226.225.532.35.852.35zM20.419 4.863h-1.662L16.673.736a1.197 1.197 0 0 0-.694-.662 1.212 1.212 0 0 0-1.345.36 1.193 1.193 0 0 0-.104 1.379l1.529 3.05H7.918l1.53-3.05a1.188 1.188 0 0 0-.57-1.527 1.212 1.212 0 0 0-1.574.45L5.22 4.863H3.558a3.627 3.627 0 0 0-2.313.878 3.568 3.568 0 0 0-.724 4.565 3.608 3.608 0 0 0 1.93 1.542l.89 8.922a3.58 3.58 0 0 0 1.179 2.31 3.628 3.628 0 0 0 2.434.92h10.093a3.628 3.628 0 0 0 2.435-.921 3.58 3.58 0 0 0 1.178-2.309l.89-8.922a3.608 3.608 0 0 0 1.933-1.547 3.568 3.568 0 0 0-.741-4.571 3.627 3.627 0 0 0-2.323-.867zm-2.18 15.668c-.03.296-.17.57-.393.77a1.21 1.21 0 0 1-.811.307H6.942a1.21 1.21 0 0 1-.811-.307 1.193 1.193 0 0 1-.393-.77l-.855-8.492h14.21l-.854 8.492zm2.18-10.884H3.559c-.32 0-.627-.126-.853-.35a1.192 1.192 0 0 1 0-1.692c.226-.224.533-.35.852-.35h16.86c.32 0 .626.126.852.35a1.192 1.192 0 0 1 0 1.692 1.21 1.21 0 0 1-.851.35z" fill="#030C0C"/></svg><svg fill="none" viewBox="0 0 8 13" id="social-fb" xmlns="http://www.w3.org/2000/svg"><path d="m6.593 7.41.367-2.385H4.67V3.48c0-.654.321-1.286 1.342-1.286H7.05V.164S6.108 0 5.206 0C3.322 0 2.092 1.14 2.092 3.21v1.815H0v2.386h2.092V13H4.67V7.41h1.923z" fill="#046D1E"/></svg><svg fill="none" viewBox="0 0 16 16" id="social-inst" xmlns="http://www.w3.org/2000/svg"><path d="M11.809 2.756a.905.905 0 1 0 .91.9.917.917 0 0 0-.91-.9zM7.782 3.918a3.802 3.802 0 1 0 .002 7.604 3.802 3.802 0 0 0-.002-7.604zm0 6.243A2.433 2.433 0 0 1 5.35 7.729a2.433 2.433 0 0 1 2.432-2.432 2.433 2.433 0 0 1 2.432 2.432 2.433 2.433 0 0 1-2.432 2.432z" fill="#046D1E"/><path d="M10.8 15.439H4.639A4.644 4.644 0 0 1 0 10.8V4.639A4.644 4.644 0 0 1 4.639 0H10.8a4.644 4.644 0 0 1 4.639 4.639V10.8a4.644 4.644 0 0 1-4.639 4.639zM4.639 1.45A3.195 3.195 0 0 0 1.45 4.64v6.16a3.195 3.195 0 0 0 3.189 3.189H10.8a3.195 3.195 0 0 0 3.189-3.189V4.639A3.195 3.195 0 0 0 10.8 1.45H4.639z" fill="#046D1E"/></svg><svg fill="none" viewBox="0 0 13 16" id="social-print" xmlns="http://www.w3.org/2000/svg"><path fill-rule="evenodd" clip-rule="evenodd" d="M5.449 10.43c-.01.046-.029.082-.038.127-.615 2.3-.682 2.815-1.316 3.888-.303.505-.643.992-1.022 1.453-.047.054-.085.117-.17.099-.095-.018-.105-.1-.114-.172a11.253 11.253 0 0 1-.133-2.11c.029-.92.152-1.237 1.401-6.226.02-.072 0-.135-.028-.207-.294-.767-.36-1.543-.095-2.337.568-1.705 2.584-1.831 2.944-.424.218.866-.36 2.003-.805 3.69-.369 1.39 1.344 2.373 2.812 1.362 1.353-.929 1.874-3.166 1.77-4.754-.2-3.157-3.834-3.843-6.143-2.824C1.87 3.16 1.265 6.29 2.458 7.715c.151.18.265.289.217.478-.075.289-.142.578-.227.857-.066.208-.246.289-.473.199a2.721 2.721 0 0 1-1.108-.785C-.145 7.264-.439 4.9.905 2.897 2.391.678 5.155-.224 7.673.047c3.01.324 4.922 2.291 5.272 4.51.161 1.01.047 3.519-1.448 5.287-1.723 2.03-4.505 2.165-5.793.92-.075-.099-.16-.216-.255-.333z" fill="#046D1E"/></svg><svg fill="none" viewBox="0 0 14 10" id="social-utb" xmlns="http://www.w3.org/2000/svg"><path d="M14 3.134C14 1.402 12.626 0 10.929 0H3.07C1.374 0 0 1.402 0 3.134v3.732C0 8.598 1.374 10 3.071 10h7.858C12.626 10 14 8.598 14 6.866V3.134zM9.38 5.277 5.854 7.054c-.14.08-.604-.027-.604-.188V3.214c0-.16.473-.268.612-.187l3.37 1.875c.14.09.288.294.148.375z" fill="#046D1E"/></svg><svg fill="none" viewBox="0 0 18 19" id="star-full" xmlns="http://www.w3.org/2000/svg"><path d="M17.32 7.774c.087-.454-.26-.999-.693-.999l-4.936-.727-2.252-4.723a.694.694 0 0 0-.346-.363C8.66.689 8.14.87 7.881 1.325L5.716 6.048l-4.937.727c-.26 0-.433.09-.52.273a.908.908 0 0 0 0 1.271l3.551 3.634-.866 5.177c0 .182 0 .364.087.545.26.455.78.636 1.212.364l4.417-2.453 4.417 2.453c.086.09.26.09.433.09h.173c.433-.09.78-.544.693-1.09l-.866-5.177 3.55-3.634a.504.504 0 0 0 .26-.454z" fill="#FF8A00"/></svg><svg fill="none" viewBox="0 0 46 46" id="user" xmlns="http://www.w3.org/2000/svg"><path fill-rule="evenodd" clip-rule="evenodd" d="M23 5.75A8.625 8.625 0 1 0 23 23a8.625 8.625 0 0 0 0-17.25zm-12.458 8.625c0-6.88 5.577-12.458 12.458-12.458 6.88 0 12.458 5.577 12.458 12.458 0 6.88-5.577 12.458-12.458 12.458-6.88 0-12.458-5.577-12.458-12.458z" fill="#BAD1FF"/><path fill-rule="evenodd" clip-rule="evenodd" d="M23 26.833c-8.366 0-15.158 5.257-16.841 12.001-.086.342 0 .639.244.902.267.289.722.514 1.264.514h30.666c.542 0 .997-.225 1.264-.514.244-.263.33-.56.244-.902-1.683-6.744-8.475-12-16.841-12zM2.44 37.906C4.6 29.25 13.093 23 23 23c9.906 0 18.4 6.25 20.56 14.906.897 3.591-2.223 6.177-5.227 6.177H7.667c-3.004 0-6.124-2.586-5.228-6.177z" fill="#BAD1FF"/></svg><svg fill="none" viewBox="0 0 13 12" id="white-star-full" xmlns="http://www.w3.org/2000/svg"><path d="M10.51 7.205a.671.671 0 0 0-.194.591l.542 3a.658.658 0 0 1-.274.658.671.671 0 0 1-.713.048l-2.7-1.408a.69.69 0 0 0-.305-.08h-.165a.493.493 0 0 0-.165.055l-2.7 1.415c-.134.067-.285.09-.433.067a.678.678 0 0 1-.542-.775l.542-2.999a.682.682 0 0 0-.194-.596L1.008 5.047a.658.658 0 0 1-.164-.689.684.684 0 0 1 .542-.457l3.029-.44a.678.678 0 0 0 .536-.37L6.286.353a.635.635 0 0 1 .122-.165l.055-.043a.41.41 0 0 1 .098-.079l.067-.024L6.73 0h.257c.23.024.43.16.536.366L8.877 3.09c.097.2.287.338.506.372l3.03.44c.255.036.47.212.554.456a.662.662 0 0 1-.177.69l-2.28 2.157z" fill="#fff"/></svg></svg>