<svg width="55" height="55" fill="none" xmlns="http://www.w3.org/2000/svg"><path d="M16.953 24.776l.34.255a1.58 1.58 0 01.595 1.8l-.136.408a5.012 5.012 0 007.73 5.556l.34-.238a1.58 1.58 0 011.902 0l.34.238a5.096 5.096 0 007.73-5.607l-.136-.407a1.58 1.58 0 01.595-1.801l.34-.255a5.097 5.097 0 00-3.024-9.021h-.425a1.698 1.698 0 01-1.53-1.121l-.067-.476a5.097 5.097 0 00-9.548 0l-.136.408a1.7 1.7 0 01-1.529 1.121h-.357a5.096 5.096 0 00-2.956 9.072l-.068.068zm1.41-4.553a1.563 1.563 0 011.614-1.121h.425a5.097 5.097 0 004.774-3.398l.119-.39a1.7 1.7 0 013.092 0l.119.39a5.097 5.097 0 004.774 3.483h.289a1.613 1.613 0 01.95 2.922l-.339.255a4.977 4.977 0 00-1.818 5.606l.136.408a1.699 1.699 0 01-2.497 1.8l-.34-.237a5.097 5.097 0 00-5.912 0l-.34.238a1.699 1.699 0 01-2.497-1.801l.136-.408a4.977 4.977 0 00-1.818-5.606l-.34-.255a1.562 1.562 0 01-.526-1.886z" fill="#05A42C"/><path d="M45.688 22.721a18.687 18.687 0 10-32.279 12.793V53.3a1.7 1.7 0 002.361 1.563L27 50.056l11.23 4.808c.21.09.434.136.662.136.333-.003.658-.103.935-.289a1.7 1.7 0 00.764-1.41V35.514a18.688 18.688 0 005.097-12.793zM27 7.431a15.29 15.29 0 110 30.58 15.29 15.29 0 010-30.58zm.663 39.21a1.698 1.698 0 00-1.325 0l-9.531 4.078V38.368a18.687 18.687 0 0020.386 0v12.35l-9.53-4.077z" fill="#05A42C"/></svg>