<svg width="50" height="44" fill="none" xmlns="http://www.w3.org/2000/svg"><path d="M33.36 34.84H13.515a2.078 2.078 0 010-4.155H33.36a2.077 2.077 0 110 4.155zm11.437 0h-.499a2.077 2.077 0 110-4.155h.5a1.031 1.031 0 001.046-1.03v-7.132a1.048 1.048 0 00-.798-1.014h-12.25a5.203 5.203 0 01-5.203-5.186V5.186a1.015 1.015 0 00-1.03-1.03H2.077a2.078 2.078 0 110-4.156h24.484a5.186 5.186 0 015.187 5.186V16.29a1.03 1.03 0 001.047 1.03h12.001c.38.005.758.044 1.13.117l.366.116A5.153 5.153 0 0150 22.54v7.13a5.202 5.202 0 01-5.203 5.17z" fill="#05A42C"/><path d="M45.512 21.576a2.062 2.062 0 01-1.945-1.38l-3.325-9.242a.998.998 0 00-.78-.415h-9.825a2.078 2.078 0 010-4.156h9.824a5.12 5.12 0 014.488 2.693c.051.096.096.196.133.299l3.325 9.425a2.094 2.094 0 01-1.264 2.66 2.558 2.558 0 01-.631.116zm-6.682 22.14a7.564 7.564 0 110-15.127 7.564 7.564 0 010 15.128zm0-10.97a3.408 3.408 0 10-.167 6.814 3.408 3.408 0 00.167-6.814zM8.028 43.716a7.564 7.564 0 110-15.126 7.564 7.564 0 010 15.127zm0-10.97a3.407 3.407 0 100 6.814 3.407 3.407 0 000-6.814z" fill="#05A42C"/><path d="M42.72 34.84a2.062 2.062 0 01-2.078-2.077V14.595a2.078 2.078 0 014.155 0v18.168a2.062 2.062 0 01-2.078 2.077zM21.425 14.66H7.813a2.078 2.078 0 010-4.155h13.613a2.078 2.078 0 110 4.156zm2.56 9.276h-7.114a2.077 2.077 0 110-4.155h7.114a2.077 2.077 0 110 4.155z" fill="#05A42C"/></svg>