<svg width="55" height="55" fill="none" xmlns="http://www.w3.org/2000/svg"><path d="M34.038 54a15.884 15.884 0 01-4.486-.876 13.63 13.63 0 00-3.288-.73 14.94 14.94 0 00-3.171.511c-2.163.525-4.633 1.124-6.942.088-2.308-1.037-3.492-3.27-4.515-5.24a13.035 13.035 0 00-1.71-2.714 13.152 13.152 0 00-2.674-1.985c-1.87-1.153-3.974-2.466-4.836-4.728-.863-2.262-.22-4.655.452-6.742a13.65 13.65 0 00.687-3.313 13.118 13.118 0 00-.511-3.167c-.526-2.16-1.125-4.611-.088-6.932a10.532 10.532 0 015.246-4.495 13.047 13.047 0 002.718-1.722A13.598 13.598 0 0012.908 9.3c1.154-1.94 2.47-4.042 4.749-4.903 2.28-.861 4.646-.146 6.75.525 1.062.38 2.166.625 3.289.73a14.03 14.03 0 003.17-.526c2.163-.51 4.633-1.109 6.942-.073a10.526 10.526 0 014.515 5.196c.456.971 1.03 1.883 1.71 2.714a13.17 13.17 0 002.732 1.985c1.87 1.153 3.975 2.466 4.837 4.728.862 2.262.146 4.656-.482 6.757a13.585 13.585 0 00-.73 3.284 13.12 13.12 0 00.51 3.166c.527 2.16 1.126 4.612.089 6.933-1.038 2.305-3.274 3.487-5.246 4.524a13.593 13.593 0 00-2.733 1.707 13.732 13.732 0 00-1.973 2.729c-1.154 1.868-2.47 3.97-4.734 4.83a6.26 6.26 0 01-2.265.395zm-7.906-5.298h.234c1.445.106 2.87.4 4.238.876a7.812 7.812 0 004.413.583c1.11-.408 1.987-1.838 2.922-3.342a17.087 17.087 0 012.587-3.458 16.529 16.529 0 013.521-2.277 7.713 7.713 0 003.624-2.802 7.666 7.666 0 00-.306-4.568 16.035 16.035 0 01-.658-4.1c.106-1.443.4-2.866.877-4.233a7.784 7.784 0 00.584-4.407c-.424-1.109-1.841-1.985-3.346-2.919a17.111 17.111 0 01-3.463-2.583 16.502 16.502 0 01-2.25-3.517 7.793 7.793 0 00-2.806-3.619 7.784 7.784 0 00-4.574.292 14.7 14.7 0 01-4.136.671 16.824 16.824 0 01-4.267-.92 7.74 7.74 0 00-4.383-.54c-1.111.424-1.988 1.84-2.923 3.343a17.091 17.091 0 01-2.586 3.43 16.53 16.53 0 01-3.522 2.276 7.801 7.801 0 00-3.624 2.802 7.754 7.754 0 00.292 4.568c.412 1.34.639 2.729.672 4.13a16.763 16.763 0 01-.92 4.261 7.71 7.71 0 00-.54 4.378c.423 1.11 1.84 1.985 3.345 2.919a17.12 17.12 0 013.464 2.583 16.507 16.507 0 012.25 3.517 7.794 7.794 0 002.806 3.62 7.813 7.813 0 004.573-.307 16.82 16.82 0 013.902-.657z" fill="#05A42C"/><path d="M23.397 37.81a2.317 2.317 0 01-1.638-.651l-6.775-6.575a2.317 2.317 0 01-.705-1.632 2.3 2.3 0 01.668-1.646 2.344 2.344 0 011.648-.698 2.363 2.363 0 011.664.66l5.157 4.992 12.289-11.585a2.353 2.353 0 011.705-.723 2.374 2.374 0 011.704.725 2.324 2.324 0 01.644 1.72 2.31 2.31 0 01-.816 1.65L25.015 37.083a2.313 2.313 0 01-1.618.726z" fill="#05A42C"/></svg>