<svg width="61" height="54" fill="none" xmlns="http://www.w3.org/2000/svg"><path d="M34.313 17.843a7.594 7.594 0 015.718-2.593v11.438a3.824 3.824 0 003.813 3.812h15.25v9.531a7.625 7.625 0 01-7.625 7.625H5.719a3.824 3.824 0 01-3.813-3.812v-5.719a3.824 3.824 0 013.813-3.813H24.78a7.625 7.625 0 007.625-7.624v-3.813a7.625 7.625 0 011.907-5.032z" fill="#C3BEC6"/><path d="M59.094 22.875V30.5h-15.25a3.824 3.824 0 01-3.813-3.813V15.25H51.47a7.625 7.625 0 017.625 7.625z" fill="#BDEFFC"/><path d="M51.469 24.781a7.648 7.648 0 01-7.625-7.625V15.25H40.03v11.438a3.824 3.824 0 003.813 3.812h15.25v-5.719h-7.625z" fill="#9DDCED"/><path d="M34.313 7.625v10.218a7.625 7.625 0 00-1.907 5.032v3.813a7.625 7.625 0 01-7.625 7.625H11.438a7.625 7.625 0 01-7.626-7.454V9.531a7.625 7.625 0 017.626-7.625h17.156a5.719 5.719 0 015.718 5.719z" fill="#D1945C"/><path d="M30.5 24.781h-9.531A11.472 11.472 0 019.53 13.344V2.175a7.604 7.604 0 00-5.719 7.356V26.86a7.455 7.455 0 007.454 7.453H24.78a7.625 7.625 0 007.625-7.624v-2.175c-.621.17-1.262.26-1.906.268z" fill="#C9874B"/><path d="M24.781 1.906H13.344v9.531H24.78v-9.53z" fill="#BDEFFC"/><path d="M17.156 1.906h-3.812v9.531h3.812v-9.53z" fill="#9DDCED"/><path d="M40.031 51.469a3.813 3.813 0 100-7.626 3.813 3.813 0 000 7.626zm-26.687 0a3.813 3.813 0 100-7.625 3.813 3.813 0 000 7.625z" fill="#655E66"/><path d="M5.719 34.313h22.875a5.72 5.72 0 01-5.719 5.718H1.906v-1.906a3.812 3.812 0 013.813-3.813z" fill="#AC9FB5"/><path d="M51.469 13.344H40.03a9.542 9.542 0 00-9.531 9.531v3.813a5.719 5.719 0 01-5.719 5.718H11.438a5.719 5.719 0 01-5.72-5.718V9.53a5.719 5.719 0 015.72-5.718v7.624a1.906 1.906 0 001.906 1.907H24.78a1.907 1.907 0 001.907-1.906V3.813a5.686 5.686 0 015.68 4.956 1.906 1.906 0 003.813-.02 1.732 1.732 0 000-.19A9.518 9.518 0 0026.688 0h-15.25a9.543 9.543 0 00-9.532 9.531v17.372a9.488 9.488 0 002.145 5.782A5.705 5.705 0 000 38.125v5.719a5.719 5.719 0 005.719 5.718h2.257a5.719 5.719 0 100-3.812H5.719a1.906 1.906 0 01-1.907-1.906v-5.719a1.906 1.906 0 011.907-1.906H24.78a9.543 9.543 0 009.532-9.532v-3.812a5.72 5.72 0 013.812-5.366v9.178a5.719 5.719 0 005.719 5.72h13.343v7.624a5.719 5.719 0 01-5.718 5.719 1.906 1.906 0 000 3.813A9.542 9.542 0 0061 40.03V22.875a9.542 9.542 0 00-9.531-9.531zM22.875 9.53H15.25V3.813h7.625V9.53zm-9.531 36.22a1.906 1.906 0 110 3.812 1.906 1.906 0 010-3.812zm30.5-17.156a1.907 1.907 0 01-1.907-1.907v-9.53h9.532a5.719 5.719 0 015.718 5.718v5.719H43.844z" fill="#000"/><path d="M45.75 47.656a5.719 5.719 0 10-11.437 0 5.719 5.719 0 0011.437 0zm-7.625 0a1.906 1.906 0 113.812 0 1.906 1.906 0 01-3.812 0zm-13.344 1.907h3.813a1.906 1.906 0 000-3.813H24.78a1.906 1.906 0 000 3.813z" fill="#000"/></svg>