<svg width="117" height="90" fill="none" xmlns="http://www.w3.org/2000/svg"><path d="M72.053 90c-.263-.878-.328-1.197-.394-1.436-.394-3.032-1.706-6.543-.853-8.857.788-2.074 4.004-2.952 6.17-4.228 6.039-3.59 9.977-9.256 11.618-17.474-5.645-.798-10.699-2.952-14.9-7.58-9.255-10.372-10.305-27.925-2.363-39.654 8.27-12.207 23.63-14.441 34.264-4.627 9.649 8.936 12.537 21.462 11.028 35.425-2.626 24.495-17.526 42.606-38.4 47.314-1.969.479-4.004.718-6.17 1.117zm-65.89 0c-.262-.949-.393-1.344-.458-1.74C4 79.487 4 79.487 10.62 75.77c6.226-3.478 10.223-9.17 11.927-17.391-1.77-.474-3.408-.712-4.98-1.265C6.426 53.636-1.111 40.434.134 26.68 1.38 12.845 10.816 1.856 22.284 1.066c17.499-1.265 30.212 15.81 28.574 38.498-1.835 25.297-16.908 44.507-38.73 49.408-1.967.396-3.867.633-5.965 1.028z" fill="#83B08E"/></svg>