<svg width="13" height="12" fill="none" xmlns="http://www.w3.org/2000/svg"><path d="M10.51 7.205a.67.67 0 00-.194.591l.542 3a.659.659 0 01-.274.658.671.671 0 01-.713.048l-2.7-1.408a.69.69 0 00-.305-.08h-.165a.493.493 0 00-.164.055l-2.7 1.415a.712.712 0 01-.434.067.678.678 0 01-.542-.775l.542-2.999a.682.682 0 00-.194-.596L1.008 5.047a.658.658 0 01-.164-.689.684.684 0 01.542-.457l3.03-.44a.678.678 0 00.536-.37L6.287.353a.634.634 0 01.122-.165l.054-.043a.41.41 0 01.099-.079l.066-.024L6.732 0h.256a.68.68 0 01.537.366L8.877 3.09c.098.2.287.338.506.372l3.03.44c.256.036.47.212.554.456a.662.662 0 01-.176.69l-2.28 2.157z" fill="#05A42C"/></svg>