<svg width="509" height="481" fill="none" xmlns="http://www.w3.org/2000/svg"><path d="M88.536 478.453c54.795-54.795 104.244-5.346 159.04-60.142 54.795-54.795 5.346-104.244 59.918-158.816 54.796-54.796 104.245-5.347 158.816-59.919 54.796-54.795 5.347-104.244 60.143-159.04M45.268 435.185c54.795-54.795 104.244-5.346 159.04-60.142 54.795-54.795 5.347-104.244 59.918-158.816 54.796-54.796 104.245-5.347 158.817-59.919 54.795-54.795 5.346-104.244 60.142-159.04M2.001 391.917c54.796-54.796 104.244-5.347 159.04-60.142 54.795-54.796 5.347-104.245 59.918-158.817 54.796-54.795 104.245-5.346 158.817-59.918C434.571 58.244 385.122 8.796 439.918-46" stroke="url(#paint0_linear_226_1894)" stroke-width="4" stroke-miterlimit="10" stroke-linecap="round" stroke-linejoin="round"/><defs><linearGradient id="paint0_linear_226_1894" x1="489.5" y1="2" x2="107" y2="409" gradientUnits="userSpaceOnUse"><stop stop-color="#05A42C" stop-opacity=".75"/><stop offset="1" stop-color="#05A42C" stop-opacity="0"/></linearGradient></defs></svg>