<svg width="24" height="24" fill="none" xmlns="http://www.w3.org/2000/svg"><path d="M14.397 19.216a1.194 1.194 0 001.204-1.196v-2.393c0-.317-.127-.621-.352-.845a1.209 1.209 0 00-1.704 0 1.192 1.192 0 00-.352.845v2.393c0 .317.127.621.352.845.226.225.533.35.852.35zm-4.817 0c.32 0 .625-.126.851-.35.226-.225.353-.53.353-.846v-2.393a1.19 1.19 0 00-.353-.845 1.209 1.209 0 00-1.703 0 1.192 1.192 0 00-.353.845v2.393c0 .317.127.621.353.845.226.225.532.35.852.35zM20.419 4.863h-1.662L16.673.736a1.197 1.197 0 00-.694-.662 1.212 1.212 0 00-1.345.36 1.193 1.193 0 00-.104 1.379l1.529 3.05H7.918l1.53-3.05a1.188 1.188 0 00-.57-1.527 1.212 1.212 0 00-1.574.45L5.22 4.863H3.558a3.627 3.627 0 00-2.313.878 3.568 3.568 0 00-.724 4.565 3.608 3.608 0 001.93 1.542l.89 8.922a3.58 3.58 0 001.179 2.31 3.628 3.628 0 002.434.92h10.093a3.628 3.628 0 002.435-.921 3.58 3.58 0 001.178-2.309l.89-8.922a3.608 3.608 0 001.933-1.547 3.568 3.568 0 00-.741-4.571 3.627 3.627 0 00-2.323-.867zm-2.18 15.668c-.03.296-.17.57-.393.77a1.21 1.21 0 01-.811.307H6.942a1.21 1.21 0 01-.811-.307 1.193 1.193 0 01-.393-.77l-.855-8.492h14.21l-.854 8.492zm2.18-10.884H3.559c-.32 0-.627-.126-.853-.35a1.192 1.192 0 010-1.692c.226-.224.533-.35.852-.35h16.86c.32 0 .626.126.852.35a1.192 1.192 0 010 1.692 1.21 1.21 0 01-.851.35z" fill="#030C0C"/></svg>