<svg width="16" height="16" fill="none" xmlns="http://www.w3.org/2000/svg"><path d="M11.809 2.756a.905.905 0 10.91.9.917.917 0 00-.91-.9zM7.782 3.918a3.802 3.802 0 10.002 7.604 3.802 3.802 0 00-.002-7.604zm0 6.243A2.433 2.433 0 015.35 7.729a2.433 2.433 0 012.432-2.432 2.433 2.433 0 012.432 2.432 2.433 2.433 0 01-2.432 2.432z" fill="#046D1E"/><path d="M10.8 15.439H4.639A4.644 4.644 0 010 10.8V4.639A4.644 4.644 0 014.639 0H10.8a4.644 4.644 0 014.639 4.639V10.8a4.644 4.644 0 01-4.639 4.639zM4.639 1.45A3.195 3.195 0 001.45 4.64v6.16a3.195 3.195 0 003.189 3.189H10.8a3.195 3.195 0 003.189-3.189V4.639A3.195 3.195 0 0010.8 1.45H4.639z" fill="#046D1E"/></svg>