<svg width="13" height="16" fill="none" xmlns="http://www.w3.org/2000/svg"><path fill-rule="evenodd" clip-rule="evenodd" d="M5.449 10.43c-.01.046-.029.082-.038.127-.615 2.3-.682 2.815-1.316 3.888-.303.505-.643.992-1.022 1.453-.047.054-.085.117-.17.099-.095-.018-.105-.1-.114-.172a11.253 11.253 0 01-.133-2.11c.029-.92.152-1.237 1.401-6.226.02-.072 0-.135-.028-.207-.294-.767-.36-1.543-.095-2.337.568-1.705 2.584-1.831 2.944-.424.218.866-.36 2.003-.805 3.69-.369 1.39 1.344 2.373 2.812 1.362 1.353-.929 1.874-3.166 1.77-4.754-.2-3.157-3.834-3.843-6.143-2.824C1.87 3.16 1.265 6.29 2.458 7.715c.151.18.265.289.217.478-.075.289-.142.578-.227.857-.066.208-.246.289-.473.199a2.721 2.721 0 01-1.108-.785C-.145 7.264-.439 4.9.905 2.897 2.391.678 5.155-.224 7.673.047c3.01.324 4.922 2.291 5.272 4.51.161 1.01.047 3.519-1.448 5.287-1.723 2.03-4.505 2.165-5.793.92-.075-.099-.16-.216-.255-.333z" fill="#046D1E"/></svg>