<svg width="13" height="12" fill="none" xmlns="http://www.w3.org/2000/svg"><path d="M10.51 7.205a.671.671 0 00-.194.591l.542 3a.658.658 0 01-.274.658.671.671 0 01-.713.048l-2.7-1.408a.69.69 0 00-.305-.08h-.165a.493.493 0 00-.165.055l-2.7 1.415c-.134.067-.285.09-.433.067a.678.678 0 01-.542-.775l.542-2.999a.682.682 0 00-.194-.596L1.008 5.047a.658.658 0 01-.164-.689.684.684 0 01.542-.457l3.029-.44a.678.678 0 00.536-.37L6.286.353a.635.635 0 01.122-.165l.055-.043a.41.41 0 01.098-.079l.067-.024L6.73 0h.257c.23.024.43.16.536.366L8.877 3.09c.097.2.287.338.506.372l3.03.44c.255.036.47.212.554.456a.662.662 0 01-.177.69l-2.28 2.157z" fill="#fff"/></svg>