<svg width="22" height="22" viewBox="0 0 22 22" fill="none" xmlns="http://www.w3.org/2000/svg">
<path d="M10.5715 1.34216C10.9098 0.432423 12.2151 0.488543 12.4729 1.42392L14.05 7.14471C14.1653 7.56289 14.5371 7.85887 14.9706 7.87751L20.8818 8.13167C21.8483 8.17323 22.1977 9.4261 21.3926 9.96272L16.4479 13.2582C16.0886 13.4976 15.9234 13.9404 16.0381 14.3564L17.6197 20.0934C17.8772 21.0276 16.788 21.7459 16.031 21.141L11.4127 17.4503C11.0727 17.1787 10.596 17.1582 10.2338 17.3997L5.31169 20.6801C4.50492 21.2177 3.48224 20.4087 3.82009 19.5001L5.89475 13.9203C6.0452 13.5157 5.91911 13.0603 5.58203 12.791L0.942506 9.08344C0.187022 8.47972 0.644175 7.26153 1.61062 7.30308L7.52188 7.55725C7.95532 7.57588 8.3515 7.31292 8.50273 6.9062L10.5715 1.34216Z" fill="#E5E5E5"/>
</svg>
