<svg width="13" height="12" viewBox="0 0 13 12" fill="none" xmlns="http://www.w3.org/2000/svg">
<path d="M10.5108 7.20495C10.3529 7.35795 10.2804 7.57922 10.3164 7.79622L10.8583 10.7952C10.904 11.0494 10.7967 11.3067 10.584 11.4536C10.3755 11.6059 10.0982 11.6242 9.87079 11.5023L7.17106 10.0942C7.07719 10.0443 6.97296 10.0174 6.86628 10.0144H6.70109C6.6438 10.0229 6.58772 10.0412 6.53651 10.0693L3.83618 11.484C3.70269 11.5511 3.55152 11.5749 3.4034 11.5511C3.04254 11.4828 2.80176 11.139 2.86089 10.7763L3.4034 7.77733C3.43936 7.5585 3.36682 7.33601 3.20895 7.18057L1.00784 5.04712C0.823755 4.86852 0.759752 4.60032 0.843871 4.35833C0.925551 4.11694 1.13402 3.94078 1.38577 3.90116L4.41526 3.46167C4.64567 3.4379 4.84804 3.2977 4.95167 3.09045L6.2866 0.353543C6.31829 0.292587 6.35913 0.236508 6.40851 0.188962L6.46337 0.146293C6.49202 0.114597 6.52493 0.0883856 6.56151 0.0670512L6.62795 0.0426689L6.73157 0H6.9882C7.21739 0.0237727 7.41915 0.160923 7.5246 0.365734L8.87721 3.09045C8.97474 3.28977 9.16431 3.42814 9.38314 3.46167L12.4126 3.90116C12.6686 3.93773 12.8826 4.1145 12.9673 4.35833C13.0472 4.60276 12.9783 4.87096 12.7906 5.04712L10.5108 7.20495Z" fill="#05A42C"/>
</svg>
