<svg width="18" height="19" viewBox="0 0 18 19" fill="none" xmlns="http://www.w3.org/2000/svg">
<path d="M17.32 7.77427C17.4066 7.32009 17.0602 6.77507 16.6272 6.77507L11.691 6.04838L9.43938 1.32488C9.35279 1.14321 9.26619 1.05237 9.09299 0.961534C8.65999 0.689024 8.14039 0.870697 7.88059 1.32488L5.71559 6.04838L0.779399 6.77507C0.519599 6.77507 0.346399 6.8659 0.2598 7.04758C-0.0865999 7.41092 -0.0865999 7.95594 0.2598 8.31929L3.81039 11.9527L2.9444 17.1304C2.9444 17.3121 2.9444 17.4938 3.031 17.6754C3.29079 18.1296 3.81039 18.3113 4.24339 18.0388L8.65999 15.5862L13.0766 18.0388C13.1632 18.1296 13.3364 18.1296 13.5096 18.1296C13.5962 18.1296 13.5962 18.1296 13.6828 18.1296C14.1158 18.0388 14.4622 17.5846 14.3756 17.0396L13.5096 11.8619L17.0602 8.22845C17.2334 8.13762 17.32 7.95594 17.32 7.77427Z" fill="#FF8A00"/>
</svg>
