<svg width="13" height="12" viewBox="0 0 13 12" fill="none" xmlns="http://www.w3.org/2000/svg">
<path d="M10.5106 7.20495C10.3527 7.35795 10.2802 7.57922 10.3161 7.79622L10.858 10.7952C10.9037 11.0494 10.7965 11.3067 10.5837 11.4536C10.3753 11.6059 10.0979 11.6242 9.87054 11.5023L7.17082 10.0942C7.07695 10.0443 6.97271 10.0174 6.86604 10.0144H6.70085C6.64355 10.0229 6.58747 10.0412 6.53627 10.0693L3.83594 11.484C3.70244 11.5511 3.55127 11.5749 3.40315 11.5511C3.0423 11.4828 2.80152 11.139 2.86065 10.7763L3.40315 7.77733C3.43912 7.5585 3.36658 7.33601 3.2087 7.18057L1.0076 5.04712C0.823511 4.86852 0.759508 4.60032 0.843627 4.35833C0.925307 4.11694 1.13378 3.94078 1.38552 3.90116L4.41502 3.46167C4.64543 3.4379 4.8478 3.2977 4.95142 3.09045L6.28635 0.353543C6.31805 0.292587 6.35889 0.236508 6.40826 0.188962L6.46312 0.146293C6.49177 0.114597 6.52469 0.0883856 6.56126 0.0670512L6.6277 0.0426689L6.73133 0H6.98795C7.21714 0.0237727 7.41891 0.160923 7.52436 0.365734L8.87697 3.09045C8.97449 3.28977 9.16407 3.42814 9.3829 3.46167L12.4124 3.90116C12.6684 3.93773 12.8824 4.1145 12.9671 4.35833C13.0469 4.60276 12.9781 4.87096 12.7903 5.04712L10.5106 7.20495Z" fill="white"/>
</svg>
